# xmcd CD database file
#
# Track frame offsets:
#	150
#	24462
#	46219
#	72450
#	98700
#	118950
#	138620
#	156030
#	176550
#	200365
#	217912
#	239700
#	271558
#
# Disc length: 3922 seconds
#
# Revision: 1
# Processed by: cddbd v1.5.2PL0 Copyright (c) Steve Scherf et al.
# Submitted via: CDex 1.51
#
DISCID=b90f500d
DTITLE=New Age Music and New Sounds - 156 Mental Alchemy
DYEAR=2006
DGENRE=New Age
TTITLE0=Jon Mark - Meditation II
TTITLE1=Secret Garden - Sleepsong
TTITLE2=Vincenzo Zitello - Serenade
TTITLE3=Claude Challe - Behesht
TTITLE4=Luigi Critelli - Sole d'inverno
TTITLE5=Ganga - Binna
TTITLE6=Andrea Terrano Band - Mood (remix)
TTITLE7=Tantratribe - 2 the sky
TTITLE8=Quintessenza - Renaissance
TTITLE9=Andrea Terrano Band - Pleiades
TTITLE10=Johnatha Butler - Move me
TTITLE11=Operazione - Tosca second act - orchestral background 
TTITLE12=Celtic Angels - Road to heavne
EXTD=YEAR: 2006
EXTT0=
EXTT1=
EXTT2=
EXTT3=
EXTT4=
EXTT5=
EXTT6=
EXTT7=
EXTT8=
EXTT9=
EXTT10=
EXTT11=
EXTT12=
PLAYORDER=
